  0
SECTION
  2
HEADER
  9
$ACADVER
  1
AC1015
  9
$ACADMAINTVER
 70
     6
  9
$DWGCODEPAGE
  3
ANSI_1252
  9
$INSBASE
 10
0.0
 20
0.0
 30
0.0
  9
$EXTMIN
 10
0.0
 20
0.0
 30
0.0
  9
$EXTMAX
 10
1.5
 20
1.5
 30
0.0
  9
$LIMMIN
 10
0.0
 20
0.0
  9
$LIMMAX
 10
12.0
 20
9.0
  9
$ORTHOMODE
 70
     0
  9
$REGENMODE
 70
     1
  9
$FILLMODE
 70
     1
  9
$QTEXTMODE
 70
     0
  9
$MIRRTEXT
 70
     1
  9
$LTSCALE
 40
1.0
  9
$ATTMODE
 70
     1
  9
$TEXTSIZE
 40
0.1377952756
  9
$TRACEWID
 40
0.05
  9
$TEXTSTYLE
  7
Standard
  9
$CLAYER
  8
0
  9
$CELTYPE
  6
ByLayer
  9
$CECOLOR
 62
   256
  9
$CELTSCALE
 40
1.0
  9
$DISPSILH
 70
     0
  9
$DIMSCALE
 40
1.0
  9
$DIMASZ
 40
0.13
  9
$DIMEXO
 40
0.0
  9
$DIMDLI
 40
0.38
  9
$DIMRND
 40
0.0
  9
$DIMDLE
 40
0.0
  9
$DIMEXE
 40
0.0393700787
  9
$DIMTP
 40
0.0
  9
$DIMTM
 40
0.0
  9
$DIMTXT
 40
0.1377952756
  9
$DIMCEN
 40
0.09
  9
$DIMTSZ
 40
0.0
  9
$DIMTOL
 70
     0
  9
$DIMLIM
 70
     0
  9
$DIMTIH
 70
     1
  9
$DIMTOH
 70
     1
  9
$DIMSE1
 70
     0
  9
$DIMSE2
 70
     0
  9
$DIMTAD
 70
     1
  9
$DIMZIN
 70
     1
  9
$DIMBLK
  1

  9
$DIMASO
 70
     1
  9
$DIMSHO
 70
     1
  9
$DIMPOST
  1

  9
$DIMAPOST
  1

  9
$DIMALT
 70
     0
  9
$DIMALTD
 70
     2
  9
$DIMALTF
 40
25.4
  9
$DIMLFAC
 40
1.0
  9
$DIMTOFL
 70
     0
  9
$DIMTVP
 40
0.0
  9
$DIMTIX
 70
     0
  9
$DIMSOXD
 70
     0
  9
$DIMSAH
 70
     0
  9
$DIMBLK1
  1

  9
$DIMBLK2
  1

  9
$DIMSTYLE
  2
Standard
  9
$DIMCLRD
 70
     0
  9
$DIMCLRE
 70
     0
  9
$DIMCLRT
 70
     0
  9
$DIMTFAC
 40
1.0
  9
$DIMGAP
 40
0.06
  9
$DIMJUST
 70
     0
  9
$DIMSD1
 70
     0
  9
$DIMSD2
 70
     0
  9
$DIMTOLJ
 70
     1
  9
$DIMTZIN
 70
     1
  9
$DIMALTZ
 70
     0
  9
$DIMALTTZ
 70
     0
  9
$DIMUPT
 70
     0
  9
$DIMDEC
 70
     2
  9
$DIMTDEC
 70
     2
  9
$DIMALTU
 70
     2
  9
$DIMALTTD
 70
     2
  9
$DIMTXSTY
  7
Standard
  9
$DIMAUNIT
 70
     0
  9
$DIMADEC
 70
     2
  9
$DIMALTRND
 40
0.0
  9
$DIMAZIN
 70
     0
  9
$DIMDSEP
 70
    46
  9
$DIMATFIT
 70
     3
  9
$DIMFRAC
 70
     0
  9
$DIMLDRBLK
  1

  9
$DIMLUNIT
 70
     2
  9
$DIMLWD
 70
    -2
  9
$DIMLWE
 70
    -2
  9
$DIMTMOVE
 70
     0
  9
$LUNITS
 70
     2
  9
$LUPREC
 70
     2
  9
$SKETCHINC
 40
0.1
  9
$FILLETRAD
 40
0.0
  9
$AUNITS
 70
     0
  9
$AUPREC
 70
     2
  9
$MENU
  1
.
  9
$ELEVATION
 40
0.0
  9
$PELEVATION
 40
0.0
  9
$THICKNESS
 40
0.0
  9
$LIMCHECK
 70
     0
  9
$CHAMFERA
 40
0.0
  9
$CHAMFERB
 40
0.0
  9
$CHAMFERC
 40
0.0
  9
$CHAMFERD
 40
0.0
  9
$SKPOLY
 70
     0
  9
$TDCREATE
 40
2460884.430518831
  9
$TDUCREATE
 40
2460884.722185498
  9
$TDUPDATE
 40
2460884.430747859
  9
$TDUUPDATE
 40
2460884.722414526
  9
$TDINDWG
 40
0.0000000116
  9
$TDUSRTIMER
 40
0.0000000116
  9
$USRTIMER
 70
     1
  9
$ANGBASE
 50
0.0
  9
$ANGDIR
 70
     0
  9
$PDMODE
 70
     0
  9
$PDSIZE
 40
-1.0
  9
$PLINEWID
 40
0.0
  9
$SPLFRAME
 70
     0
  9
$SPLINETYPE
 70
     6
  9
$SPLINESEGS
 70
     8
  9
$HANDSEED
  5
142
  9
$SURFTAB1
 70
     6
  9
$SURFTAB2
 70
     6
  9
$SURFTYPE
 70
     6
  9
$SURFU
 70
     6
  9
$SURFV
 70
     6
  9
$UCSBASE
  2

  9
$UCSNAME
  2

  9
$UCSORG
 10
0.0
 20
0.0
 30
0.0
  9
$UCSXDIR
 10
1.0
 20
0.0
 30
0.0
  9
$UCSYDIR
 10
0.0
 20
1.0
 30
0.0
  9
$UCSORTHOREF
  2

  9
$UCSORTHOVIEW
 70
     0
  9
$UCSORGTOP
 10
0.0
 20
0.0
 30
0.0
  9
$UCSORGBOTTOM
 10
0.0
 20
0.0
 30
0.0
  9
$UCSORGLEFT
 10
0.0
 20
0.0
 30
0.0
  9
$UCSORGRIGHT
 10
0.0
 20
0.0
 30
0.0
  9
$UCSORGFRONT
 10
0.0
 20
0.0
 30
0.0
  9
$UCSORGBACK
 10
0.0
 20
0.0
 30
0.0
  9
$PUCSBASE
  2

  9
$PUCSNAME
  2

  9
$PUCSORG
 10
0.0
 20
0.0
 30
0.0
  9
$PUCSXDIR
 10
1.0
 20
0.0
 30
0.0
  9
$PUCSYDIR
 10
0.0
 20
1.0
 30
0.0
  9
$PUCSORTHOREF
  2

  9
$PUCSORTHOVIEW
 70
     0
  9
$PUCSORGTOP
 10
0.0
 20
0.0
 30
0.0
  9
$PUCSORGBOTTOM
 10
0.0
 20
0.0
 30
0.0
  9
$PUCSORGLEFT
 10
0.0
 20
0.0
 30
0.0
  9
$PUCSORGRIGHT
 10
0.0
 20
0.0
 30
0.0
  9
$PUCSORGFRONT
 10
0.0
 20
0.0
 30
0.0
  9
$PUCSORGBACK
 10
0.0
 20
0.0
 30
0.0
  9
$USERI1
 70
     0
  9
$USERI2
 70
     0
  9
$USERI3
 70
     0
  9
$USERI4
 70
     0
  9
$USERI5
 70
     0
  9
$USERR1
 40
0.0
  9
$USERR2
 40
0.0
  9
$USERR3
 40
0.0
  9
$USERR4
 40
0.0
  9
$USERR5
 40
0.0
  9
$WORLDVIEW
 70
     1
  9
$SHADEDGE
 70
     3
  9
$SHADEDIF
 70
    70
  9
$TILEMODE
 70
     1
  9
$MAXACTVP
 70
    64
  9
$PINSBASE
 10
0.0
 20
0.0
 30
0.0
  9
$PLIMCHECK
 70
     0
  9
$PEXTMIN
 10
1.0000000000E+20
 20
1.0000000000E+20
 30
1.0000000000E+20
  9
$PEXTMAX
 10
-1.0000000000E+20
 20
-1.0000000000E+20
 30
-1.0000000000E+20
  9
$PLIMMIN
 10
0.0
 20
0.0
  9
$PLIMMAX
 10
12.0
 20
9.0
  9
$UNITMODE
 70
     0
  9
$VISRETAIN
 70
     1
  9
$PLINEGEN
 70
     0
  9
$PSLTSCALE
 70
     1
  9
$TREEDEPTH
 70
  3020
  9
$CMLSTYLE
  2
Standard
  9
$CMLJUST
 70
     0
  9
$CMLSCALE
 40
1.0
  9
$PROXYGRAPHICS
 70
     1
  9
$MEASUREMENT
 70
     0
  9
$CELWEIGHT
370
    -1
  9
$ENDCAPS
280
     0
  9
$JOINSTYLE
280
     0
  9
$LWDISPLAY
290
     1
  9
$INSUNITS
 70
     1
  9
$HYPERLINKBASE
  1

  9
$STYLESHEET
  1

  9
$XEDIT
290
     1
  9
$CEPSNTYPE
380
     0
  9
$PSTYLEMODE
290
     1
  9
$FINGERPRINTGUID
  2
{79cf5dcd-d47b-4231-9637-9b30d21a1e9b}
  9
$VERSIONGUID
  2
{FAEB1C32-E019-11D5-929B-00C0DF256EC4}
  9
$EXTNAMES
290
     1
  9
$PSVPSCALE
 40
0.0
  9
$OLESTARTUP
290
     0
  0
ENDSEC
  0
SECTION
  2
CLASSES
  0
CLASS
  1
ACDBDICTIONARYWDFLT
  2
AcDbDictionaryWithDefault
  3
ObjectDBX Classes
 90
        0
280
     0
281
     0
  0
CLASS
  1
VISUALSTYLE
  2
AcDbVisualStyle
  3
ObjectDBX Classes
 90
     4095
280
     0
281
     0
  0
CLASS
  1
MATERIAL
  2
AcDbMaterial
  3
ObjectDBX Classes
 90
     1153
280
     0
281
     0
  0
CLASS
  1
SCALE
  2
AcDbScale
  3
ObjectDBX Classes
 90
     1153
280
     0
281
     0
  0
CLASS
  1
TABLESTYLE
  2
AcDbTableStyle
  3
ObjectDBX Classes
 90
     4095
280
     0
281
     0
  0
CLASS
  1
MLEADERSTYLE
  2
AcDbMLeaderStyle
  3
ACDB_MLEADERSTYLE_CLASS
 90
     4095
280
     0
281
     0
  0
CLASS
  1
SUN
  2
AcDbSun
  3
SCENEOE
 90
     1153
280
     0
281
     0
  0
CLASS
  1
ACDBPLACEHOLDER
  2
AcDbPlaceHolder
  3
ObjectDBX Classes
 90
        0
280
     0
281
     0
  0
CLASS
  1
LAYOUT
  2
AcDbLayout
  3
ObjectDBX Classes
 90
        0
280
     0
281
     0
  0
ENDSEC
  0
SECTION
  2
TABLES
  0
TABLE
  2
VPORT
  5
8
330
0
100
AcDbSymbolTable
 70
     1
  0
VPORT
  5
29
330
8
100
AcDbSymbolTableRecord
100
AcDbViewportTableRecord
  2
*Active
 70
     0
 10
0.0
 20
0.0
 11
1.0
 21
1.0
 12
0.75
 22
0.75
 13
0.0
 23
0.0
 14
0.5
 24
0.5
 15
0.5
 25
0.5
 16
0.0
 26
0.0
 36
1.0
 17
0.0
 27
0.0
 37
0.0
 40
1.53
 41
1.0
 42
50.0
 43
0.0
 44
0.0
 50
0.0
 51
0.0
 71
     0
 72
   100
 73
     1
 74
     3
 75
     0
 76
     0
 77
     0
 78
     0
281
     0
 65
     1
110
0.0
120
0.0
130
0.0
111
1.0
121
0.0
131
0.0
112
0.0
122
1.0
132
0.0
 79
     0
146
0.0
  0
ENDTAB
  0
TABLE
  2
LTYPE
  5
5
330
0
100
AcDbSymbolTable
 70
     6
  0
LTYPE
  5
14
330
5
100
AcDbSymbolTableRecord
100
AcDbLinetypeTableRecord
  2
ByBlock
 70
     0
  3

 72
    65
 73
     0
 40
0.0
  0
LTYPE
  5
15
330
5
100
AcDbSymbolTableRecord
100
AcDbLinetypeTableRecord
  2
ByLayer
 70
     0
  3

 72
    65
 73
     0
 40
0.0
  0
LTYPE
  5
16
330
5
100
AcDbSymbolTableRecord
100
AcDbLinetypeTableRecord
  2
Continuous
 70
     0
  3
Solid line
 72
    65
 73
     0
 40
0.0
  0
LTYPE
  5
5E
330
5
100
AcDbSymbolTableRecord
100
AcDbLinetypeTableRecord
  2
HIDDEN
 70
     0
  3
Hidden __ __ __ __ __ __ __ __ __ __ __ __ __ __
 72
    65
 73
     2
 40
0.075
 49
0.05
 74
     0
 49
-0.025
 74
     0
  0
LTYPE
  5
5F
330
5
100
AcDbSymbolTableRecord
100
AcDbLinetypeTableRecord
  2
PHANTOM
 70
     0
  3
Phantom ______  __  __  ______  __  __  ______
 72
    65
 73
     6
 40
0.5
 49
0.25
 74
     0
 49
-0.05
 74
     0
 49
0.05
 74
     0
 49
-0.05
 74
     0
 49
0.05
 74
     0
 49
-0.05
 74
     0
  0
LTYPE
  5
60
330
5
100
AcDbSymbolTableRecord
100
AcDbLinetypeTableRecord
  2
CENTER
 70
     0
  3
Center ____ _ ____ _ ____ _ ____ _ ____ _ ____
 72
    65
 73
     4
 40
0.4
 49
0.25
 74
     0
 49
-0.05
 74
     0
 49
0.05
 74
     0
 49
-0.05
 74
     0
  0
LTYPE
  5
61
330
5
100
AcDbSymbolTableRecord
100
AcDbLinetypeTableRecord
  2
CENTERX2
 70
     0
  3
Center (2x) ________  __  ________  __  _____
 72
    65
 73
     4
 40
0.8
 49
0.5
 74
     0
 49
-0.1
 74
     0
 49
0.1
 74
     0
 49
-0.1
 74
     0
  0
LTYPE
  5
62
330
5
100
AcDbSymbolTableRecord
100
AcDbLinetypeTableRecord
  2
DOT2
 70
     0
  3
Dot (.5x) ........................................
 72
    65
 73
     2
 40
0.025
 49
0.0
 74
     0
 49
-0.025
 74
     0
  0
ENDTAB
  0
TABLE
  2
LAYER
  5
2
330
0
100
AcDbSymbolTable
 70
     1
  0
LAYER
  5
10
330
2
100
AcDbSymbolTableRecord
100
AcDbLayerTableRecord
  2
0
 70
     0
 62
     7
  6
Continuous
370
    -3
390
F
  0
ENDTAB
  0
TABLE
  2
STYLE
  5
3
330
0
100
AcDbSymbolTable
 70
     2
  0
STYLE
  5
11
330
3
100
AcDbSymbolTableRecord
100
AcDbTextStyleTableRecord
  2
Standard
 70
     0
 40
0.0
 41
1.0
 50
0.0
 71
     0
 42
0.1377952756
  3
txt
  4

  0
STYLE
  5
13E
330
3
100
AcDbSymbolTableRecord
100
AcDbTextStyleTableRecord
  2
SLDTEXTSTYLE0
 70
     0
 40
0.0
 41
0.7
 50
0.0
 71
     0
 42
0.1377952756
  3
TXT
  4

  0
ENDTAB
  0
TABLE
  2
VIEW
  5
6
330
0
100
AcDbSymbolTable
 70
     0
  0
ENDTAB
  0
TABLE
  2
UCS
  5
7
330
0
100
AcDbSymbolTable
 70
     0
  0
ENDTAB
  0
TABLE
  2
APPID
  5
9
330
0
100
AcDbSymbolTable
 70
     1
  0
APPID
  5
12
330
9
100
AcDbSymbolTableRecord
100
AcDbRegAppTableRecord
  2
ACAD
 70
     0
  0
ENDTAB
  0
TABLE
  2
DIMSTYLE
  5
A
330
0
100
AcDbSymbolTable
 70
     1
100
AcDbDimStyleTable
  0
DIMSTYLE
105
27
330
A
100
AcDbSymbolTableRecord
100
AcDbDimStyleTableRecord
  2
Standard
 70
     0
178
     0
340
11
  0
ENDTAB
  0
TABLE
  2
BLOCK_RECORD
  5
1
330
0
100
AcDbSymbolTable
 70
     1
  0
BLOCK_RECORD
  5
1F
330
1
100
AcDbSymbolTableRecord
100
AcDbBlockTableRecord
  2
*Model_Space
340
22
  0
BLOCK_RECORD
  5
1B
330
1
100
AcDbSymbolTableRecord
100
AcDbBlockTableRecord
  2
*Paper_Space
340
1E
  0
BLOCK_RECORD
  5
23
330
1
100
AcDbSymbolTableRecord
100
AcDbBlockTableRecord
  2
*Paper_Space0
340
26
  0
ENDTAB
  0
ENDSEC
  0
SECTION
  2
BLOCKS
  0
BLOCK
  5
20
330
1F
100
AcDbEntity
  8
0
100
AcDbBlockBegin
  2
*Model_Space
 70
     0
 10
0.0
 20
0.0
 30
0.0
  3
*Model_Space
  1

  0
ENDBLK
  5
21
330
1F
100
AcDbEntity
  8
0
100
AcDbBlockEnd
  0
BLOCK
  5
1C
330
1B
100
AcDbEntity
 67
     1
  8
0
100
AcDbBlockBegin
  2
*Paper_Space
 70
     0
 10
0.0
 20
0.0
 30
0.0
  3
*Paper_Space
  1

  0
ENDBLK
  5
1D
330
1B
100
AcDbEntity
 67
     1
  8
0
100
AcDbBlockEnd
  0
BLOCK
  5
24
330
23
100
AcDbEntity
  8
0
100
AcDbBlockBegin
  2
*Paper_Space0
 70
     0
 10
0.0
 20
0.0
 30
0.0
  3
*Paper_Space0
  1

  0
ENDBLK
  5
25
330
23
100
AcDbEntity
  8
0
100
AcDbBlockEnd
  0
ENDSEC
  0
SECTION
  2
ENTITIES
  0
ARC
  5
63
330
1F
100
AcDbEntity
  8
0
  6
Continuous
 62
     7
100
AcDbCircle
 10
0.7091387243
 20
0.6201905291
 30
0.0
 40
0.1549721014344327
100
AcDbArc
 50
4.2001468908
 51
78.7298224884
  0
ARC
  5
64
330
1F
100
AcDbEntity
  8
0
  6
Continuous
 62
     7
100
AcDbCircle
 10
0.3957287229
 20
0.6171642428
 30
0.0
 40
0.1586334999721106
100
AcDbArc
 50
102.2697391969
 51
174.8002914239
  0
ARC
  5
65
330
1F
100
AcDbEntity
  8
0
  6
Continuous
 62
     7
100
AcDbCircle
 10
0.3835512237
 20
0.9674588739
 30
0.0
 40
0.0219411832492156
100
AcDbArc
 50
132.9096671262
 51
270.2582713574
  0
ARC
  5
66
330
1F
100
AcDbEntity
  8
0
  6
Continuous
 62
     7
100
AcDbCircle
 10
0.7085214138
 20
0.9706847346
 30
0.0
 40
0.0271288279461275
100
AcDbArc
 50
291.9242737288
 51
21.9242737288
  0
ARC
  5
67
330
1F
100
AcDbEntity
  8
0
  6
Continuous
 62
     7
100
AcDbCircle
 10
0.6459698546
 20
0.9375814887
 30
0.0
 40
0.0731129700959131
100
AcDbArc
 50
276.231745605
 51
6.231745605
  0
ARC
  5
68
330
1F
100
AcDbEntity
  8
0
  6
Continuous
 62
     7
100
AcDbCircle
 10
0.626546499
 20
0.9252591448
 30
0.0
 40
0.0610859266755819
100
AcDbArc
 50
171.14958247
 51
261.14958247
  0
ARC
  5
69
330
1F
100
AcDbEntity
  8
0
  6
Continuous
 62
     7
100
AcDbCircle
 10
0.4521540051
 20
0.933404423
 30
0.0
 40
0.0695666438243118
100
AcDbArc
 50
169.9720912326
 51
259.9720912326
  0
ARC
  5
6A
330
1F
100
AcDbEntity
  8
0
  6
Continuous
 62
     7
100
AcDbCircle
 10
0.4751278666
 20
0.9271388244
 30
0.0
 40
0.0626907850432698
100
AcDbArc
 50
276.888258277
 51
6.888258277
  0
ARC
  5
6B
330
1F
100
AcDbEntity
  8
0
  6
Continuous
 62
     7
100
AcDbCircle
 10
0.5486442233
 20
1.7871502447
 30
0.0
 40
0.7942540220179372
100
AcDbArc
 50
249.4004583519
 51
290.5995416481
  0
ARC
  5
6C
330
1F
100
AcDbEntity
  8
0
  6
Continuous
 62
     7
100
AcDbCircle
 10
0.6898836939
 20
0.783552402
 30
0.0
 40
0.2945620241730137
100
AcDbArc
 50
62.018121897
 51
85.061848479
  0
ARC
  5
6D
330
1F
100
AcDbEntity
  8
0
  6
Continuous
 62
     7
100
AcDbCircle
 10
0.4118846857
 20
0.7643327288
 30
0.0
 40
0.3136776303686928
100
AcDbArc
 50
94.5516785255
 51
117.0573116639
  0
CIRCLE
  5
6E
330
1F
100
AcDbEntity
  8
0
  6
Continuous
 62
     7
100
AcDbCircle
 10
1.0624380433
 20
0.9748594468
 30
0.0
 40
0.0100613343428368
  0
CIRCLE
  5
6F
330
1F
100
AcDbEntity
  8
0
  6
Continuous
 62
     7
100
AcDbCircle
 10
1.203601613
 20
0.9674588739
 30
0.0
 40
0.0087651488344847
  0
ARC
  5
70
330
1F
100
AcDbEntity
  8
0
  6
Continuous
 62
     7
100
AcDbCircle
 10
1.203601613
 20
0.9674588739
 30
0.0
 40
0.0270457795120326
100
AcDbArc
 50
10.6765645973
 51
273.0987009123
  0
CIRCLE
  5
71
330
1F
100
AcDbEntity
  8
0
  6
Continuous
 62
     7
100
AcDbCircle
 10
1.1740074926
 20
0.7650788486
 30
0.0
 40
0.009282159820468
  0
ARC
  5
72
330
1F
100
AcDbEntity
  8
0
  6
Continuous
 62
     7
100
AcDbCircle
 10
1.1740074926
 20
0.7650788486
 30
0.0
 40
0.025680060537971
100
AcDbArc
 50
111.1849053683
 51
51.1864377377
  0
CIRCLE
  5
73
330
1F
100
AcDbEntity
  8
0
  6
Continuous
 62
     7
100
AcDbCircle
 10
1.1141182124
 20
0.6884748806
 30
0.0
 40
0.0093336682051725
  0
ARC
  5
74
330
1F
100
AcDbEntity
  8
0
  6
Continuous
 62
     7
100
AcDbCircle
 10
1.1141182124
 20
0.6884748806
 30
0.0
 40
0.0255061363022244
100
AcDbArc
 50
109.6305285556
 51
64.5359876143
  0
ARC
  5
75
330
1F
100
AcDbEntity
  8
0
  6
Continuous
 62
     7
100
AcDbCircle
 10
1.0624380433
 20
0.9748594468
 30
0.0
 40
0.027010557275623
100
AcDbArc
 50
288.6760969723
 51
243.5693131786
  0
LINE
  5
76
330
1F
100
AcDbEntity
  8
0
  6
Continuous
 62
     7
100
AcDbLine
 10
0.0
 20
0.0
 30
0.0
 11
1.5
 21
0.0
 31
0.0
  0
LINE
  5
77
330
1F
100
AcDbEntity
  8
0
  6
Continuous
 62
     7
100
AcDbLine
 10
0.0
 20
0.0
 30
0.0
 11
0.0
 21
1.5
 31
0.0
  0
LINE
  5
78
330
1F
100
AcDbEntity
  8
0
  6
Continuous
 62
     7
100
AcDbLine
 10
0.0
 20
1.5
 30
0.0
 11
1.5
 21
1.5
 31
0.0
  0
LINE
  5
79
330
1F
100
AcDbEntity
  8
0
  6
Continuous
 62
     7
100
AcDbLine
 10
1.5
 20
0.0
 30
0.0
 11
1.5
 21
1.5
 31
0.0
  0
LINE
  5
7A
330
1F
100
AcDbEntity
  8
0
  6
Continuous
 62
     7
100
AcDbLine
 10
0.2377480221
 20
0.6315408027
 30
0.0
 11
0.8636946155
 21
0.6315408027
 31
0.0
  0
LINE
  5
7B
330
1F
100
AcDbEntity
  8
0
  6
Continuous
 62
     7
100
AcDbLine
 10
0.7394258065
 20
0.7721742285
 30
0.0
 11
0.8125551879
 21
0.8570656782
 31
0.0
  0
LINE
  5
7C
330
1F
100
AcDbEntity
  8
0
  6
Continuous
 62
     7
100
AcDbLine
 10
0.8125551879
 20
0.8570656782
 30
0.0
 11
0.7297093153
 21
0.8969544317
 31
0.0
  0
LINE
  5
7D
330
1F
100
AcDbEntity
  8
0
  6
Continuous
 62
     7
100
AcDbLine
 10
0.7297093153
 20
0.8969544317
 30
0.0
 11
0.6857294075
 21
0.7931413938
 31
0.0
  0
LINE
  5
7E
330
1F
100
AcDbEntity
  8
0
  6
Continuous
 62
     7
100
AcDbLine
 10
0.6857294075
 20
0.7931413938
 30
0.0
 11
0.5522555016
 21
0.6494396023
 31
0.0
  0
LINE
  5
7F
330
1F
100
AcDbEntity
  8
0
  6
Continuous
 62
     7
100
AcDbLine
 10
0.5522555016
 20
0.6494396023
 30
0.0
 11
0.4167360185
 21
0.7931413938
 31
0.0
  0
LINE
  5
80
330
1F
100
AcDbEntity
  8
0
  6
Continuous
 62
     7
100
AcDbLine
 10
0.4167360185
 20
0.7931413938
 30
0.0
 11
0.371221928
 21
0.8969544317
 31
0.0
  0
LINE
  5
81
330
1F
100
AcDbEntity
  8
0
  6
Continuous
 62
     7
100
AcDbLine
 10
0.371221928
 20
0.8969544317
 30
0.0
 11
0.2888874496
 21
0.8570656782
 31
0.0
  0
LINE
  5
82
330
1F
100
AcDbEntity
  8
0
  6
Continuous
 62
     7
100
AcDbLine
 10
0.2888874496
 20
0.8570656782
 30
0.0
 11
0.362016831
 21
0.7721742285
 31
0.0
  0
LINE
  5
83
330
1F
100
AcDbEntity
  8
0
  6
Continuous
 62
     7
100
AcDbLine
 10
0.3686126907
 20
0.9835292117
 30
0.0
 11
0.3869917799
 21
0.9780990262
 31
0.0
  0
LINE
  5
84
330
1F
100
AcDbEntity
  8
0
  6
Continuous
 62
     7
100
AcDbLine
 10
0.3869917799
 20
0.9780990262
 30
0.0
 11
0.4981017281
 21
0.9780990262
 31
0.0
  0
LINE
  5
85
330
1F
100
AcDbEntity
  8
0
  6
Continuous
 62
     7
100
AcDbLine
 10
0.4981017281
 20
0.9780990262
 30
0.0
 11
0.5327713736
 21
0.962643883
 31
0.0
  0
LINE
  5
86
330
1F
100
AcDbEntity
  8
0
  6
Continuous
 62
     7
100
AcDbLine
 10
0.5327713736
 20
0.962643883
 30
0.0
 11
0.5661878993
 21
0.962643883
 31
0.0
  0
LINE
  5
87
330
1F
100
AcDbEntity
  8
0
  6
Continuous
 62
     7
100
AcDbLine
 10
0.5661878993
 20
0.962643883
 30
0.0
 11
0.6058700237
 21
0.9780990262
 31
0.0
  0
LINE
  5
88
330
1F
100
AcDbEntity
  8
0
  6
Continuous
 62
     7
100
AcDbLine
 10
0.6058700237
 20
0.9780990262
 30
0.0
 11
0.7128029062
 21
0.9780990262
 31
0.0
  0
LINE
  5
89
330
1F
100
AcDbEntity
  8
0
  6
Continuous
 62
     7
100
AcDbLine
 10
0.7128029062
 20
0.9780990262
 30
0.0
 11
0.7336882348
 21
0.9808141189
 31
0.0
  0
LINE
  5
8A
330
1F
100
AcDbEntity
  8
0
  6
Continuous
 62
     7
100
AcDbLine
 10
0.6539062795
 20
0.8649005452
 30
0.0
 11
0.6171481011
 21
0.8649005452
 31
0.0
  0
LINE
  5
8B
330
1F
100
AcDbEntity
  8
0
  6
Continuous
 62
     7
100
AcDbLine
 10
0.4400405145
 20
0.8649005452
 30
0.0
 11
0.4826465849
 21
0.8649005452
 31
0.0
  0
LINE
  5
8C
330
1F
100
AcDbEntity
  8
0
  6
Continuous
 62
     7
100
AcDbLine
 10
0.5661878993
 20
0.9346575427
 30
0.0
 11
0.5373661459
 21
0.9346575427
 31
0.0
  0
LINE
  5
8D
330
1F
100
AcDbEntity
  8
0
  6
Continuous
 62
     7
100
AcDbLine
 10
0.8280899201
 20
1.0252769121
 30
0.0
 11
0.9111941969
 21
1.1263842995
 31
0.0
  0
LINE
  5
8E
330
1F
100
AcDbEntity
  8
0
  6
Continuous
 62
     7
100
AcDbLine
 10
0.9111941969
 20
1.1263842995
 30
0.0
 11
1.2145163591
 21
1.1263842995
 31
0.0
  0
LINE
  5
8F
330
1F
100
AcDbEntity
  8
0
  6
Continuous
 62
     7
100
AcDbLine
 10
1.2145163591
 20
1.1263842995
 30
0.0
 11
1.3002593886
 21
1.0252769121
 31
0.0
  0
LINE
  5
90
330
1F
100
AcDbEntity
  8
0
  6
Continuous
 62
     7
100
AcDbLine
 10
1.3002593886
 20
1.0252769121
 30
0.0
 11
1.2301791937
 21
0.9400150497
 31
0.0
  0
LINE
  5
91
330
1F
100
AcDbEntity
  8
0
  6
Continuous
 62
     7
100
AcDbLine
 10
1.2301791937
 20
0.9400150497
 30
0.0
 11
1.2516032292
 21
0.922405763
 31
0.0
  0
LINE
  5
92
330
1F
100
AcDbEntity
  8
0
  6
Continuous
 62
     7
100
AcDbLine
 10
1.2516032292
 20
0.922405763
 30
0.0
 11
1.2516032292
 21
0.8465882612
 31
0.0
  0
LINE
  5
93
330
1F
100
AcDbEntity
  8
0
  6
Continuous
 62
     7
100
AcDbLine
 10
1.2516032292
 20
0.8465882612
 30
0.0
 11
1.1901034532
 21
0.7850884852
 31
0.0
  0
LINE
  5
94
330
1F
100
AcDbEntity
  8
0
  6
Continuous
 62
     7
100
AcDbLine
 10
1.1852745167
 20
0.8057152817
 30
0.0
 11
1.2301791937
 21
0.8506199587
 31
0.0
  0
LINE
  5
95
330
1F
100
AcDbEntity
  8
0
  6
Continuous
 62
     7
100
AcDbLine
 10
1.2301791937
 20
0.8506199587
 30
0.0
 11
1.2301791937
 21
0.9117789135
 31
0.0
  0
LINE
  5
96
330
1F
100
AcDbEntity
  8
0
  6
Continuous
 62
     7
100
AcDbLine
 10
1.2301791937
 20
0.9117789135
 30
0.0
 11
1.2195523442
 21
0.922405763
 31
0.0
  0
LINE
  5
97
330
1F
100
AcDbEntity
  8
0
  6
Continuous
 62
     7
100
AcDbLine
 10
1.2195523442
 20
0.922405763
 30
0.0
 11
1.166480658
 21
0.8587072273
 31
0.0
  0
LINE
  5
98
330
1F
100
AcDbEntity
  8
0
  6
Continuous
 62
     7
100
AcDbLine
 10
1.166480658
 20
0.8587072273
 30
0.0
 11
1.1852745167
 21
0.8430487547
 31
0.0
  0
LINE
  5
99
330
1F
100
AcDbEntity
  8
0
  6
Continuous
 62
     7
100
AcDbLine
 10
1.1852745167
 20
0.8430487547
 30
0.0
 11
1.1852745167
 21
0.8057152817
 31
0.0
  0
LINE
  5
9A
330
1F
100
AcDbEntity
  8
0
  6
Continuous
 62
     7
100
AcDbLine
 10
1.1250844251
 20
0.7115032363
 30
0.0
 11
1.1250844251
 21
0.8057152817
 31
0.0
  0
LINE
  5
9B
330
1F
100
AcDbEntity
  8
0
  6
Continuous
 62
     7
100
AcDbLine
 10
1.1250844251
 20
0.8057152817
 30
0.0
 11
1.1561895415
 21
0.8430487547
 31
0.0
  0
LINE
  5
9C
330
1F
100
AcDbEntity
  8
0
  6
Continuous
 62
     7
100
AcDbLine
 10
1.1561895415
 20
0.8430487547
 30
0.0
 11
1.1647272596
 21
0.8345110367
 31
0.0
  0
LINE
  5
9D
330
1F
100
AcDbEntity
  8
0
  6
Continuous
 62
     7
100
AcDbLine
 10
1.1647272596
 20
0.8345110367
 30
0.0
 11
1.1647272596
 21
0.789023426
 31
0.0
  0
LINE
  5
9E
330
1F
100
AcDbEntity
  8
0
  6
Continuous
 62
     7
100
AcDbLine
 10
1.1055493373
 20
0.7124985641
 30
0.0
 11
1.1055493373
 21
0.783552402
 31
0.0
  0
LINE
  5
9F
330
1F
100
AcDbEntity
  8
0
  6
Continuous
 62
     7
100
AcDbLine
 10
1.1055493373
 20
0.783552402
 30
0.0
 11
1.0612983858
 21
0.7393014505
 31
0.0
  0
LINE
  5
A0
330
1F
100
AcDbEntity
  8
0
  6
Continuous
 62
     7
100
AcDbLine
 10
1.0612983858
 20
0.7393014505
 30
0.0
 11
0.8280899201
 21
1.0252769121
 31
0.0
  0
LINE
  5
A1
330
1F
100
AcDbEntity
  8
0
  6
Continuous
 62
     7
100
AcDbLine
 10
0.8662593876
 20
1.0368416878
 30
0.0
 11
0.9610561522
 21
1.0368416878
 31
0.0
  0
LINE
  5
A2
330
1F
100
AcDbEntity
  8
0
  6
Continuous
 62
     7
100
AcDbLine
 10
0.9610561522
 20
1.0368416878
 30
0.0
 11
0.9161905079
 21
1.0984865514
 31
0.0
  0
LINE
  5
A3
330
1F
100
AcDbEntity
  8
0
  6
Continuous
 62
     7
100
AcDbLine
 10
0.9161905079
 20
1.0984865514
 30
0.0
 11
0.8662593876
 21
1.0368416878
 31
0.0
  0
LINE
  5
A4
330
1F
100
AcDbEntity
  8
0
  6
Continuous
 62
     7
100
AcDbLine
 10
0.9440506257
 20
1.1023310557
 30
0.0
 11
0.9810980433
 21
1.0514283428
 31
0.0
  0
LINE
  5
A5
330
1F
100
AcDbEntity
  8
0
  6
Continuous
 62
     7
100
AcDbLine
 10
0.9810980433
 20
1.0514283428
 30
0.0
 11
1.0247364215
 21
1.1023310557
 31
0.0
  0
LINE
  5
A6
330
1F
100
AcDbEntity
  8
0
  6
Continuous
 62
     7
100
AcDbLine
 10
1.0247364215
 20
1.1023310557
 30
0.0
 11
0.9440506257
 21
1.1023310557
 31
0.0
  0
LINE
  5
A7
330
1F
100
AcDbEntity
  8
0
  6
Continuous
 62
     7
100
AcDbLine
 10
1.0048534
 20
1.0368416878
 30
0.0
 11
1.0601043731
 21
1.104923572
 31
0.0
  0
LINE
  5
A8
330
1F
100
AcDbEntity
  8
0
  6
Continuous
 62
     7
100
AcDbLine
 10
1.0601043731
 20
1.104923572
 30
0.0
 11
1.1210709641
 21
1.0368416878
 31
0.0
  0
LINE
  5
A9
330
1F
100
AcDbEntity
  8
0
  6
Continuous
 62
     7
100
AcDbLine
 10
1.1210709641
 20
1.0368416878
 30
0.0
 11
1.0048534
 21
1.0368416878
 31
0.0
  0
LINE
  5
AA
330
1F
100
AcDbEntity
  8
0
  6
Continuous
 62
     7
100
AcDbLine
 10
1.0956768107
 20
1.1023310557
 30
0.0
 11
1.1449570211
 21
1.047299447
 31
0.0
  0
LINE
  5
AB
330
1F
100
AcDbEntity
  8
0
  6
Continuous
 62
     7
100
AcDbLine
 10
1.1449570211
 20
1.047299447
 30
0.0
 11
1.1814076683
 21
1.1023310557
 31
0.0
  0
LINE
  5
AC
330
1F
100
AcDbEntity
  8
0
  6
Continuous
 62
     7
100
AcDbLine
 10
1.0956768107
 20
1.1023310557
 30
0.0
 11
1.1814076683
 21
1.1023310557
 31
0.0
  0
LINE
  5
AD
330
1F
100
AcDbEntity
  8
0
  6
Continuous
 62
     7
100
AcDbLine
 10
1.2588337484
 20
1.0383014907
 30
0.0
 11
1.1675335674
 21
1.0383014907
 31
0.0
  0
LINE
  5
AE
330
1F
100
AcDbEntity
  8
0
  6
Continuous
 62
     7
100
AcDbLine
 10
1.1675335674
 20
1.0383014907
 30
0.0
 11
1.2073976467
 21
1.0984865514
 31
0.0
  0
LINE
  5
AF
330
1F
100
AcDbEntity
  8
0
  6
Continuous
 62
     7
100
AcDbLine
 10
1.2073976467
 20
1.0984865514
 30
0.0
 11
1.2588337484
 21
1.0383014907
 31
0.0
  0
LINE
  5
B0
330
1F
100
AcDbEntity
  8
0
  6
Continuous
 62
     7
100
AcDbLine
 10
1.0216541145
 20
0.8196742554
 30
0.0
 11
0.9690751761
 21
1.0133624815
 31
0.0
  0
LINE
  5
B1
330
1F
100
AcDbEntity
  8
0
  6
Continuous
 62
     7
100
AcDbLine
 10
0.9690751761
 20
1.0133624815
 30
0.0
 11
0.8623444251
 21
1.0133624815
 31
0.0
  0
LINE
  5
B2
330
1F
100
AcDbEntity
  8
0
  6
Continuous
 62
     7
100
AcDbLine
 10
0.8623444251
 20
1.0133624815
 30
0.0
 11
1.0216541145
 21
0.8196742554
 31
0.0
  0
LINE
  5
B3
330
1F
100
AcDbEntity
  8
0
  6
Continuous
 62
     7
100
AcDbLine
 10
0.9926682895
 20
1.0133624815
 30
0.0
 11
1.1328787919
 21
1.0133624815
 31
0.0
  0
LINE
  5
B4
330
1F
100
AcDbEntity
  8
0
  6
Continuous
 62
     7
100
AcDbLine
 10
1.1328787919
 20
1.0133624815
 30
0.0
 11
1.1027694853
 21
0.8989920556
 31
0.0
  0
LINE
  5
B5
330
1F
100
AcDbEntity
  8
0
  6
Continuous
 62
     7
100
AcDbLine
 10
1.1027694853
 20
0.8989920556
 30
0.0
 11
1.1402937704
 21
0.8587072273
 31
0.0
  0
LINE
  5
B6
330
1F
100
AcDbEntity
  8
0
  6
Continuous
 62
     7
100
AcDbLine
 10
1.1402937704
 20
0.8587072273
 30
0.0
 11
1.1250844251
 21
0.8414697982
 31
0.0
  0
LINE
  5
B7
330
1F
100
AcDbEntity
  8
0
  6
Continuous
 62
     7
100
AcDbLine
 10
1.1250844251
 20
0.8414697982
 30
0.0
 11
1.0710873045
 21
0.8913523808
 31
0.0
  0
LINE
  5
B8
330
1F
100
AcDbEntity
  8
0
  6
Continuous
 62
     7
100
AcDbLine
 10
1.0710873045
 20
0.8913523808
 30
0.0
 11
1.0710873045
 21
0.9492711587
 31
0.0
  0
LINE
  5
B9
330
1F
100
AcDbEntity
  8
0
  6
Continuous
 62
     7
100
AcDbLine
 10
0.9926682895
 20
1.0133624815
 30
0.0
 11
1.0601043731
 21
0.7684434949
 31
0.0
  0
LINE
  5
BA
330
1F
100
AcDbEntity
  8
0
  6
Continuous
 62
     7
100
AcDbLine
 10
1.0601043731
 20
0.7684434949
 30
0.0
 11
1.1113079454
 21
0.8264151449
 31
0.0
  0
LINE
  5
BB
330
1F
100
AcDbEntity
  8
0
  6
Continuous
 62
     7
100
AcDbLine
 10
1.1113079454
 20
0.8264151449
 30
0.0
 11
1.0504152432
 21
0.8873078471
 31
0.0
  0
LINE
  5
BC
330
1F
100
AcDbEntity
  8
0
  6
Continuous
 62
     7
100
AcDbLine
 10
1.0504152432
 20
0.8873078471
 30
0.0
 11
1.0504152432
 21
0.9506722088
 31
0.0
  0
LINE
  5
BD
330
1F
100
AcDbEntity
  8
0
  6
Continuous
 62
     7
100
AcDbLine
 10
1.2301791937
 20
0.9724695018
 30
0.0
 11
1.2621983664
 21
1.0133624815
 31
0.0
  0
LINE
  5
BE
330
1F
100
AcDbEntity
  8
0
  6
Continuous
 62
     7
100
AcDbLine
 10
1.2621983664
 20
1.0133624815
 30
0.0
 11
1.1561895415
 21
1.0133624815
 31
0.0
  0
LINE
  5
BF
330
1F
100
AcDbEntity
  8
0
  6
Continuous
 62
     7
100
AcDbLine
 10
1.1561895415
 20
1.0133624815
 30
0.0
 11
1.1250844251
 21
0.8989920556
 31
0.0
  0
LINE
  5
C0
330
1F
100
AcDbEntity
  8
0
  6
Continuous
 62
     7
100
AcDbLine
 10
1.1250844251
 20
0.8989920556
 30
0.0
 11
1.1500062746
 21
0.8751297236
 31
0.0
  0
LINE
  5
C1
330
1F
100
AcDbEntity
  8
0
  6
Continuous
 62
     7
100
AcDbLine
 10
1.1500062746
 20
0.8751297236
 30
0.0
 11
1.2050636043
 21
0.9404526381
 31
0.0
  0
LINE
  5
C2
330
1F
100
AcDbEntity
  8
0
  6
Continuous
 62
     7
100
AcDbLine
 10
0.2845105922
 20
0.4322019279
 30
0.0
 11
0.2845105922
 21
0.5832650232
 31
0.0
  0
LINE
  5
C3
330
1F
100
AcDbEntity
  8
0
  6
Continuous
 62
     7
100
AcDbLine
 10
0.2845105922
 20
0.5832650232
 30
0.0
 11
0.3169572429
 21
0.5832650232
 31
0.0
  0
LINE
  5
C4
330
1F
100
AcDbEntity
  8
0
  6
Continuous
 62
     7
100
AcDbLine
 10
0.3169572429
 20
0.5832650232
 30
0.0
 11
0.356850666
 21
0.5077334756
 31
0.0
  0
LINE
  5
C5
330
1F
100
AcDbEntity
  8
0
  6
Continuous
 62
     7
100
AcDbLine
 10
0.356850666
 20
0.5077334756
 30
0.0
 11
0.4031270367
 21
0.5832650232
 31
0.0
  0
LINE
  5
C6
330
1F
100
AcDbEntity
  8
0
  6
Continuous
 62
     7
100
AcDbLine
 10
0.4031270367
 20
0.5832650232
 30
0.0
 11
0.4366375121
 21
0.5832650232
 31
0.0
  0
LINE
  5
C7
330
1F
100
AcDbEntity
  8
0
  6
Continuous
 62
     7
100
AcDbLine
 10
0.4366375121
 20
0.5832650232
 30
0.0
 11
0.4366375121
 21
0.4322019279
 31
0.0
  0
LINE
  5
C8
330
1F
100
AcDbEntity
  8
0
  6
Continuous
 62
     7
100
AcDbLine
 10
0.4366375121
 20
0.4322019279
 30
0.0
 11
0.4031270367
 21
0.4322019279
 31
0.0
  0
LINE
  5
C9
330
1F
100
AcDbEntity
  8
0
  6
Continuous
 62
     7
100
AcDbLine
 10
0.4031270367
 20
0.4322019279
 30
0.0
 11
0.4031270367
 21
0.525818494
 31
0.0
  0
LINE
  5
CA
330
1F
100
AcDbEntity
  8
0
  6
Continuous
 62
     7
100
AcDbLine
 10
0.4031270367
 20
0.525818494
 30
0.0
 11
0.3639123471
 21
0.4618129086
 31
0.0
  0
LINE
  5
CB
330
1F
100
AcDbEntity
  8
0
  6
Continuous
 62
     7
100
AcDbLine
 10
0.3639123471
 20
0.4618129086
 30
0.0
 11
0.3531272798
 21
0.4618129086
 31
0.0
  0
LINE
  5
CC
330
1F
100
AcDbEntity
  8
0
  6
Continuous
 62
     7
100
AcDbLine
 10
0.3531272798
 20
0.4618129086
 30
0.0
 11
0.3169572429
 21
0.525818494
 31
0.0
  0
LINE
  5
CD
330
1F
100
AcDbEntity
  8
0
  6
Continuous
 62
     7
100
AcDbLine
 10
0.3169572429
 20
0.525818494
 30
0.0
 11
0.3169572429
 21
0.4322019279
 31
0.0
  0
LINE
  5
CE
330
1F
100
AcDbEntity
  8
0
  6
Continuous
 62
     7
100
AcDbLine
 10
0.3169572429
 20
0.4322019279
 30
0.0
 11
0.2845105922
 21
0.4322019279
 31
0.0
  0
LINE
  5
CF
330
1F
100
AcDbEntity
  8
0
  6
Continuous
 62
     7
100
AcDbLine
 10
0.4607980687
 20
0.4322019279
 30
0.0
 11
0.5177881668
 21
0.5832650232
 31
0.0
  0
LINE
  5
D0
330
1F
100
AcDbEntity
  8
0
  6
Continuous
 62
     7
100
AcDbLine
 10
0.5177881668
 20
0.5832650232
 30
0.0
 11
0.5502641419
 21
0.5832650232
 31
0.0
  0
LINE
  5
D1
330
1F
100
AcDbEntity
  8
0
  6
Continuous
 62
     7
100
AcDbLine
 10
0.5502641419
 20
0.5832650232
 30
0.0
 11
0.6058700237
 21
0.4322019279
 31
0.0
  0
LINE
  5
D2
330
1F
100
AcDbEntity
  8
0
  6
Continuous
 62
     7
100
AcDbLine
 10
0.6058700237
 20
0.4322019279
 30
0.0
 11
0.5718449511
 21
0.4322019279
 31
0.0
  0
LINE
  5
D3
330
1F
100
AcDbEntity
  8
0
  6
Continuous
 62
     7
100
AcDbLine
 10
0.5718449511
 20
0.4322019279
 30
0.0
 11
0.5633438164
 21
0.4609283203
 31
0.0
  0
LINE
  5
D4
330
1F
100
AcDbEntity
  8
0
  6
Continuous
 62
     7
100
AcDbLine
 10
0.5633438164
 20
0.4609283203
 30
0.0
 11
0.5046390858
 21
0.4609283203
 31
0.0
  0
LINE
  5
D5
330
1F
100
AcDbEntity
  8
0
  6
Continuous
 62
     7
100
AcDbLine
 10
0.5046390858
 20
0.4609283203
 30
0.0
 11
0.4938017604
 21
0.4322019279
 31
0.0
  0
LINE
  5
D6
330
1F
100
AcDbEntity
  8
0
  6
Continuous
 62
     7
100
AcDbLine
 10
0.4938017604
 20
0.4322019279
 30
0.0
 11
0.4607980687
 21
0.4322019279
 31
0.0
  0
LINE
  5
D7
330
1F
100
AcDbEntity
  8
0
  6
Continuous
 62
     7
100
AcDbLine
 10
0.5546641127
 20
0.4869637731
 30
0.0
 11
0.5115024942
 21
0.4869637731
 31
0.0
  0
LINE
  5
D8
330
1F
100
AcDbEntity
  8
0
  6
Continuous
 62
     7
100
AcDbLine
 10
0.5115024942
 20
0.4869637731
 30
0.0
 11
0.5330833035
 21
0.5445824385
 31
0.0
  0
LINE
  5
D9
330
1F
100
AcDbEntity
  8
0
  6
Continuous
 62
     7
100
AcDbLine
 10
0.5330833035
 20
0.5445824385
 30
0.0
 11
0.5546641127
 21
0.4869637731
 31
0.0
  0
LINE
  5
DA
330
1F
100
AcDbEntity
  8
0
  6
Continuous
 62
     7
100
AcDbLine
 10
0.6290445717
 20
0.4322019279
 30
0.0
 11
0.6290445717
 21
0.5832650232
 31
0.0
  0
LINE
  5
DB
330
1F
100
AcDbEntity
  8
0
  6
Continuous
 62
     7
100
AcDbLine
 10
0.6290445717
 20
0.5832650232
 30
0.0
 11
0.6969298357
 21
0.5832650232
 31
0.0
  0
LINE
  5
DC
330
1F
100
AcDbEntity
  8
0
  6
Continuous
 62
     7
100
AcDbLine
 10
0.6290445717
 20
0.4322019279
 30
0.0
 11
0.6969298357
 21
0.4322019279
 31
0.0
  0
LINE
  5
DD
330
1F
100
AcDbEntity
  8
0
  6
Continuous
 62
     7
100
AcDbLine
 10
0.6914822528
 20
0.458468724
 30
0.0
 11
0.6598443674
 21
0.458468724
 31
0.0
  0
LINE
  5
DE
330
1F
100
AcDbEntity
  8
0
  6
Continuous
 62
     7
100
AcDbLine
 10
0.6598443674
 20
0.458468724
 30
0.0
 11
0.6598443674
 21
0.5561061716
 31
0.0
  0
LINE
  5
DF
330
1F
100
AcDbEntity
  8
0
  6
Continuous
 62
     7
100
AcDbLine
 10
0.6598443674
 20
0.5561061716
 30
0.0
 11
0.6914822528
 21
0.5561061716
 31
0.0
  0
LINE
  5
E0
330
1F
100
AcDbEntity
  8
0
  6
Continuous
 62
     7
100
AcDbLine
 10
0.88883159
 20
0.5832650232
 30
0.0
 11
0.7882073804
 21
0.5832650232
 31
0.0
  0
LINE
  5
E1
330
1F
100
AcDbEntity
  8
0
  6
Continuous
 62
     7
100
AcDbLine
 10
0.7882073804
 20
0.5832650232
 30
0.0
 11
0.7882073804
 21
0.4322019279
 31
0.0
  0
LINE
  5
E2
330
1F
100
AcDbEntity
  8
0
  6
Continuous
 62
     7
100
AcDbLine
 10
0.7882073804
 20
0.4322019279
 30
0.0
 11
0.88883159
 21
0.4322019279
 31
0.0
  0
LINE
  5
E3
330
1F
100
AcDbEntity
  8
0
  6
Continuous
 62
     7
100
AcDbLine
 10
0.88883159
 20
0.4322019279
 30
0.0
 11
0.88883159
 21
0.458468724
 31
0.0
  0
LINE
  5
E4
330
1F
100
AcDbEntity
  8
0
  6
Continuous
 62
     7
100
AcDbLine
 10
0.88883159
 20
0.458468724
 30
0.0
 11
0.819890805
 21
0.458468724
 31
0.0
  0
LINE
  5
E5
330
1F
100
AcDbEntity
  8
0
  6
Continuous
 62
     7
100
AcDbLine
 10
0.819890805
 20
0.458468724
 30
0.0
 11
0.819890805
 21
0.4915178509
 31
0.0
  0
LINE
  5
E6
330
1F
100
AcDbEntity
  8
0
  6
Continuous
 62
     7
100
AcDbLine
 10
0.819890805
 20
0.4915178509
 30
0.0
 11
0.881790829
 21
0.4915178509
 31
0.0
  0
LINE
  5
E7
330
1F
100
AcDbEntity
  8
0
  6
Continuous
 62
     7
100
AcDbLine
 10
0.881790829
 20
0.4915178509
 30
0.0
 11
0.881790829
 21
0.5226145454
 31
0.0
  0
LINE
  5
E8
330
1F
100
AcDbEntity
  8
0
  6
Continuous
 62
     7
100
AcDbLine
 10
0.881790829
 20
0.5226145454
 30
0.0
 11
0.819890805
 21
0.5226145454
 31
0.0
  0
LINE
  5
E9
330
1F
100
AcDbEntity
  8
0
  6
Continuous
 62
     7
100
AcDbLine
 10
0.819890805
 20
0.5226145454
 30
0.0
 11
0.819890805
 21
0.5523347681
 31
0.0
  0
LINE
  5
EA
330
1F
100
AcDbEntity
  8
0
  6
Continuous
 62
     7
100
AcDbLine
 10
0.819890805
 20
0.5523347681
 30
0.0
 11
0.88883159
 21
0.5523347681
 31
0.0
  0
LINE
  5
EB
330
1F
100
AcDbEntity
  8
0
  6
Continuous
 62
     7
100
AcDbLine
 10
0.88883159
 20
0.5523347681
 30
0.0
 11
0.88883159
 21
0.5832650232
 31
0.0
  0
LINE
  5
EC
330
1F
100
AcDbEntity
  8
0
  6
Continuous
 62
     7
100
AcDbLine
 10
1.0547282591
 20
0.4322019279
 30
0.0
 11
1.0547282591
 21
0.5832650232
 31
0.0
  0
LINE
  5
ED
330
1F
100
AcDbEntity
  8
0
  6
Continuous
 62
     7
100
AcDbLine
 10
0.9860620381
 20
0.4322019279
 30
0.0
 11
1.0166632887
 21
0.4322019279
 31
0.0
  0
LINE
  5
EE
330
1F
100
AcDbEntity
  8
0
  6
Continuous
 62
     7
100
AcDbLine
 10
0.9860620381
 20
0.4322019279
 30
0.0
 11
0.9860620381
 21
0.5832650232
 31
0.0
  0
LINE
  5
EF
330
1F
100
AcDbEntity
  8
0
  6
Continuous
 62
     7
100
AcDbLine
 10
0.9860620381
 20
0.5832650232
 30
0.0
 11
1.0166632887
 21
0.5832650232
 31
0.0
  0
LINE
  5
F0
330
1F
100
AcDbEntity
  8
0
  6
Continuous
 62
     7
100
AcDbLine
 10
1.0166632887
 20
0.4322019279
 30
0.0
 11
1.0166632887
 21
0.5832650232
 31
0.0
  0
LINE
  5
F1
330
1F
100
AcDbEntity
  8
0
  6
Continuous
 62
     7
100
AcDbLine
 10
1.0547282591
 20
0.5832650232
 30
0.0
 11
1.0883149976
 21
0.5832650232
 31
0.0
  0
LINE
  5
F2
330
1F
100
AcDbEntity
  8
0
  6
Continuous
 62
     7
100
AcDbLine
 10
1.0883149976
 20
0.5832650232
 30
0.0
 11
1.1528761727
 21
0.4803913162
 31
0.0
  0
LINE
  5
F3
330
1F
100
AcDbEntity
  8
0
  6
Continuous
 62
     7
100
AcDbLine
 10
1.1528761727
 20
0.4803913162
 30
0.0
 11
1.1528761727
 21
0.5832650232
 31
0.0
  0
LINE
  5
F4
330
1F
100
AcDbEntity
  8
0
  6
Continuous
 62
     7
100
AcDbLine
 10
1.1528761727
 20
0.5832650232
 30
0.0
 11
1.1814076683
 21
0.5832650232
 31
0.0
  0
LINE
  5
F5
330
1F
100
AcDbEntity
  8
0
  6
Continuous
 62
     7
100
AcDbLine
 10
1.1814076683
 20
0.5832650232
 30
0.0
 11
1.1814076683
 21
0.4322019279
 31
0.0
  0
LINE
  5
F6
330
1F
100
AcDbEntity
  8
0
  6
Continuous
 62
     7
100
AcDbLine
 10
1.1814076683
 20
0.4322019279
 30
0.0
 11
1.1500062746
 21
0.4322019279
 31
0.0
  0
LINE
  5
F7
330
1F
100
AcDbEntity
  8
0
  6
Continuous
 62
     7
100
AcDbLine
 10
1.1500062746
 20
0.4322019279
 30
0.0
 11
1.0883149976
 21
0.5305026534
 31
0.0
  0
LINE
  5
F8
330
1F
100
AcDbEntity
  8
0
  6
Continuous
 62
     7
100
AcDbLine
 10
1.0883149976
 20
0.5305026534
 30
0.0
 11
1.0883149976
 21
0.4322019279
 31
0.0
  0
LINE
  5
F9
330
1F
100
AcDbEntity
  8
0
  6
Continuous
 62
     7
100
AcDbLine
 10
1.0883149976
 20
0.4322019279
 30
0.0
 11
1.0547282591
 21
0.4322019279
 31
0.0
  0
LINE
  5
FA
330
1F
100
AcDbEntity
  8
0
  6
Continuous
 62
     7
100
AcDbLine
 10
0.3425973168
 20
0.3913242988
 30
0.0
 11
0.2845105922
 21
0.3913242988
 31
0.0
  0
LINE
  5
FB
330
1F
100
AcDbEntity
  8
0
  6
Continuous
 62
     7
100
AcDbLine
 10
0.2845105922
 20
0.3913242988
 30
0.0
 11
0.2845105922
 21
0.2391682259
 31
0.0
  0
LINE
  5
FC
330
1F
100
AcDbEntity
  8
0
  6
Continuous
 62
     7
100
AcDbLine
 10
0.2845105922
 20
0.2391682259
 30
0.0
 11
0.3531272798
 21
0.2391682259
 31
0.0
  0
LINE
  5
FD
330
1F
100
AcDbEntity
  8
0
  6
Continuous
 62
     7
100
AcDbLine
 10
0.3453424006
 20
0.2674033734
 30
0.0
 11
0.3169572429
 21
0.2674033734
 31
0.0
  0
LINE
  5
FE
330
1F
100
AcDbEntity
  8
0
  6
Continuous
 62
     7
100
AcDbLine
 10
0.3169572429
 20
0.2674033734
 30
0.0
 11
0.3169572429
 21
0.3030894627
 31
0.0
  0
LINE
  5
FF
330
1F
100
AcDbEntity
  8
0
  6
Continuous
 62
     7
100
AcDbLine
 10
0.3169572429
 20
0.3030894627
 30
0.0
 11
0.3453424006
 21
0.3030894627
 31
0.0
  0
LINE
  5
100
330
1F
100
AcDbEntity
  8
0
  6
Continuous
 62
     7
100
AcDbLine
 10
0.3453424006
 20
0.3321089199
 30
0.0
 11
0.3169572429
 21
0.3321089199
 31
0.0
  0
LINE
  5
101
330
1F
100
AcDbEntity
  8
0
  6
Continuous
 62
     7
100
AcDbLine
 10
0.3169572429
 20
0.3321089199
 30
0.0
 11
0.3169572429
 21
0.363481306
 31
0.0
  0
LINE
  5
102
330
1F
100
AcDbEntity
  8
0
  6
Continuous
 62
     7
100
AcDbLine
 10
0.3169572429
 20
0.363481306
 30
0.0
 11
0.3453424006
 21
0.363481306
 31
0.0
  0
LINE
  5
103
330
1F
100
AcDbEntity
  8
0
  6
Continuous
 62
     7
100
AcDbLine
 10
0.6914822528
 20
0.2353764735
 30
0.0
 11
0.5943192919
 21
0.2353764735
 31
0.0
  0
LINE
  5
104
330
1F
100
AcDbEntity
  8
0
  6
Continuous
 62
     7
100
AcDbLine
 10
0.5943192919
 20
0.2353764735
 30
0.0
 11
0.5943192919
 21
0.3900123177
 31
0.0
  0
LINE
  5
105
330
1F
100
AcDbEntity
  8
0
  6
Continuous
 62
     7
100
AcDbLine
 10
0.5943192919
 20
0.3900123177
 30
0.0
 11
0.6914822528
 21
0.3900123177
 31
0.0
  0
LINE
  5
106
330
1F
100
AcDbEntity
  8
0
  6
Continuous
 62
     7
100
AcDbLine
 10
0.6914822528
 20
0.3900123177
 30
0.0
 11
0.6914822528
 21
0.3605012857
 31
0.0
  0
LINE
  5
107
330
1F
100
AcDbEntity
  8
0
  6
Continuous
 62
     7
100
AcDbLine
 10
0.6914822528
 20
0.3605012857
 30
0.0
 11
0.626546499
 21
0.3605012857
 31
0.0
  0
LINE
  5
108
330
1F
100
AcDbEntity
  8
0
  6
Continuous
 62
     7
100
AcDbLine
 10
0.626546499
 20
0.3605012857
 30
0.0
 11
0.626546499
 21
0.3321089199
 31
0.0
  0
LINE
  5
109
330
1F
100
AcDbEntity
  8
0
  6
Continuous
 62
     7
100
AcDbLine
 10
0.626546499
 20
0.3321089199
 30
0.0
 11
0.682433916
 21
0.3321089199
 31
0.0
  0
LINE
  5
10A
330
1F
100
AcDbEntity
  8
0
  6
Continuous
 62
     7
100
AcDbLine
 10
0.682433916
 20
0.3321089199
 30
0.0
 11
0.682433916
 21
0.3009814282
 31
0.0
  0
LINE
  5
10B
330
1F
100
AcDbEntity
  8
0
  6
Continuous
 62
     7
100
AcDbLine
 10
0.682433916
 20
0.3009814282
 30
0.0
 11
0.626546499
 21
0.3003443789
 31
0.0
  0
LINE
  5
10C
330
1F
100
AcDbEntity
  8
0
  6
Continuous
 62
     7
100
AcDbLine
 10
0.626546499
 20
0.3003443789
 30
0.0
 11
0.626546499
 21
0.2674033734
 31
0.0
  0
LINE
  5
10D
330
1F
100
AcDbEntity
  8
0
  6
Continuous
 62
     7
100
AcDbLine
 10
0.626546499
 20
0.2674033734
 30
0.0
 11
0.6914822528
 21
0.2674033734
 31
0.0
  0
LINE
  5
10E
330
1F
100
AcDbEntity
  8
0
  6
Continuous
 62
     7
100
AcDbLine
 10
0.6914822528
 20
0.2674033734
 30
0.0
 11
0.6914822528
 21
0.2353764735
 31
0.0
  0
LINE
  5
10F
330
1F
100
AcDbEntity
  8
0
  6
Continuous
 62
     7
100
AcDbLine
 10
0.7258439296
 20
0.2353764735
 30
0.0
 11
0.8173066395
 21
0.2353764735
 31
0.0
  0
LINE
  5
110
330
1F
100
AcDbEntity
  8
0
  6
Continuous
 62
     7
100
AcDbLine
 10
0.8173066395
 20
0.2353764735
 30
0.0
 11
0.8173066395
 21
0.2674397157
 31
0.0
  0
LINE
  5
111
330
1F
100
AcDbEntity
  8
0
  6
Continuous
 62
     7
100
AcDbLine
 10
0.8173066395
 20
0.2674397157
 30
0.0
 11
0.7583199047
 21
0.2674397157
 31
0.0
  0
LINE
  5
112
330
1F
100
AcDbEntity
  8
0
  6
Continuous
 62
     7
100
AcDbLine
 10
0.7583199047
 20
0.2674397157
 30
0.0
 11
0.7583199047
 21
0.3900123177
 31
0.0
  0
LINE
  5
113
330
1F
100
AcDbEntity
  8
0
  6
Continuous
 62
     7
100
AcDbLine
 10
0.7583199047
 20
0.3900123177
 30
0.0
 11
0.7258439296
 21
0.3900123177
 31
0.0
  0
LINE
  5
114
330
1F
100
AcDbEntity
  8
0
  6
Continuous
 62
     7
100
AcDbLine
 10
0.7258439296
 20
0.3900123177
 30
0.0
 11
0.7258439296
 21
0.2353764735
 31
0.0
  0
LINE
  5
115
330
1F
100
AcDbEntity
  8
0
  6
Continuous
 62
     7
100
AcDbLine
 10
0.855164566
 20
0.2353764735
 30
0.0
 11
0.88883159
 21
0.2353764735
 31
0.0
  0
LINE
  5
116
330
1F
100
AcDbEntity
  8
0
  6
Continuous
 62
     7
100
AcDbLine
 10
0.88883159
 20
0.2353764735
 30
0.0
 11
0.88883159
 21
0.3605012857
 31
0.0
  0
LINE
  5
117
330
1F
100
AcDbEntity
  8
0
  6
Continuous
 62
     7
100
AcDbLine
 10
0.88883159
 20
0.3605012857
 30
0.0
 11
0.930464398
 21
0.3605012857
 31
0.0
  0
LINE
  5
118
330
1F
100
AcDbEntity
  8
0
  6
Continuous
 62
     7
100
AcDbLine
 10
0.930464398
 20
0.3605012857
 30
0.0
 11
0.930464398
 21
0.3900123177
 31
0.0
  0
LINE
  5
119
330
1F
100
AcDbEntity
  8
0
  6
Continuous
 62
     7
100
AcDbLine
 10
0.930464398
 20
0.3900123177
 30
0.0
 11
0.8125551879
 21
0.3900123177
 31
0.0
  0
LINE
  5
11A
330
1F
100
AcDbEntity
  8
0
  6
Continuous
 62
     7
100
AcDbLine
 10
0.8125551879
 20
0.3900123177
 30
0.0
 11
0.8125551879
 21
0.3605012857
 31
0.0
  0
LINE
  5
11B
330
1F
100
AcDbEntity
  8
0
  6
Continuous
 62
     7
100
AcDbLine
 10
0.8125551879
 20
0.3605012857
 30
0.0
 11
0.855164566
 21
0.3605012857
 31
0.0
  0
LINE
  5
11C
330
1F
100
AcDbEntity
  8
0
  6
Continuous
 62
     7
100
AcDbLine
 10
0.855164566
 20
0.3605012857
 30
0.0
 11
0.855164566
 21
0.2353764735
 31
0.0
  0
LINE
  5
11D
330
1F
100
AcDbEntity
  8
0
  6
Continuous
 62
     7
100
AcDbLine
 10
0.9545936259
 20
0.2353764735
 30
0.0
 11
1.0547282591
 21
0.2353764735
 31
0.0
  0
LINE
  5
11E
330
1F
100
AcDbEntity
  8
0
  6
Continuous
 62
     7
100
AcDbLine
 10
1.0547282591
 20
0.2353764735
 30
0.0
 11
1.0547282591
 21
0.2674397157
 31
0.0
  0
LINE
  5
11F
330
1F
100
AcDbEntity
  8
0
  6
Continuous
 62
     7
100
AcDbLine
 10
1.0547282591
 20
0.2674397157
 30
0.0
 11
0.9860620381
 21
0.2674397157
 31
0.0
  0
LINE
  5
120
330
1F
100
AcDbEntity
  8
0
  6
Continuous
 62
     7
100
AcDbLine
 10
0.9860620381
 20
0.2674397157
 30
0.0
 11
0.9860620381
 21
0.2979388796
 31
0.0
  0
LINE
  5
121
330
1F
100
AcDbEntity
  8
0
  6
Continuous
 62
     7
100
AcDbLine
 10
0.9860620381
 20
0.2979388796
 30
0.0
 11
1.0436221565
 21
0.2979388796
 31
0.0
  0
LINE
  5
122
330
1F
100
AcDbEntity
  8
0
  6
Continuous
 62
     7
100
AcDbLine
 10
1.0436221565
 20
0.2979388796
 30
0.0
 11
1.0436221565
 21
0.3279840472
 31
0.0
  0
LINE
  5
123
330
1F
100
AcDbEntity
  8
0
  6
Continuous
 62
     7
100
AcDbLine
 10
1.0436221565
 20
0.3279840472
 30
0.0
 11
0.9860620381
 21
0.3279840472
 31
0.0
  0
LINE
  5
124
330
1F
100
AcDbEntity
  8
0
  6
Continuous
 62
     7
100
AcDbLine
 10
0.9860620381
 20
0.3279840472
 30
0.0
 11
0.9860620381
 21
0.3605012857
 31
0.0
  0
LINE
  5
125
330
1F
100
AcDbEntity
  8
0
  6
Continuous
 62
     7
100
AcDbLine
 10
0.9860620381
 20
0.3605012857
 30
0.0
 11
1.0547282591
 21
0.3605012857
 31
0.0
  0
LINE
  5
126
330
1F
100
AcDbEntity
  8
0
  6
Continuous
 62
     7
100
AcDbLine
 10
1.0547282591
 20
0.3605012857
 30
0.0
 11
1.0547282591
 21
0.3900123177
 31
0.0
  0
LINE
  5
127
330
1F
100
AcDbEntity
  8
0
  6
Continuous
 62
     7
100
AcDbLine
 10
1.0547282591
 20
0.3900123177
 30
0.0
 11
0.9545936259
 21
0.3900123177
 31
0.0
  0
LINE
  5
128
330
1F
100
AcDbEntity
  8
0
  6
Continuous
 62
     7
100
AcDbLine
 10
0.9545936259
 20
0.3900123177
 30
0.0
 11
0.9545936259
 21
0.2353764735
 31
0.0
  0
LINE
  5
129
330
1F
100
AcDbEntity
  8
0
  6
Continuous
 62
     7
100
AcDbLine
 10
1.1609401267
 20
0.2979388796
 30
0.0
 11
1.1987980532
 21
0.2414615707
 31
0.0
  0
LINE
  5
12A
330
1F
100
AcDbEntity
  8
0
  6
Continuous
 62
     7
100
AcDbLine
 10
1.1987980532
 20
0.2414615707
 30
0.0
 11
1.1609401267
 21
0.2414615707
 31
0.0
  0
LINE
  5
12B
330
1F
100
AcDbEntity
  8
0
  6
Continuous
 62
     7
100
AcDbLine
 10
1.1609401267
 20
0.2414615707
 30
0.0
 11
1.1328787919
 21
0.2929907419
 31
0.0
  0
LINE
  5
12C
330
1F
100
AcDbEntity
  8
0
  6
Continuous
 62
     7
100
AcDbLine
 10
1.1328787919
 20
0.2929907419
 30
0.0
 11
1.1141182124
 21
0.2929907419
 31
0.0
  0
LINE
  5
12D
330
1F
100
AcDbEntity
  8
0
  6
Continuous
 62
     7
100
AcDbLine
 10
1.1141182124
 20
0.2929907419
 30
0.0
 11
1.1141182124
 21
0.2414615707
 31
0.0
  0
LINE
  5
12E
330
1F
100
AcDbEntity
  8
0
  6
Continuous
 62
     7
100
AcDbLine
 10
1.1141182124
 20
0.2414615707
 30
0.0
 11
1.0827281465
 21
0.2414615707
 31
0.0
  0
LINE
  5
12F
330
1F
100
AcDbEntity
  8
0
  6
Continuous
 62
     7
100
AcDbLine
 10
1.0827281465
 20
0.2414615707
 30
0.0
 11
1.0827281465
 21
0.3900123177
 31
0.0
  0
LINE
  5
130
330
1F
100
AcDbEntity
  8
0
  6
Continuous
 62
     7
100
AcDbLine
 10
1.0827281465
 20
0.3900123177
 30
0.0
 11
1.1402937704
 21
0.3900123177
 31
0.0
  0
LINE
  5
131
330
1F
100
AcDbEntity
  8
0
  6
Continuous
 62
     7
100
AcDbLine
 10
1.1402937704
 20
0.363481306
 30
0.0
 11
1.1141182124
 21
0.363481306
 31
0.0
  0
LINE
  5
132
330
1F
100
AcDbEntity
  8
0
  6
Continuous
 62
     7
100
AcDbLine
 10
1.1141182124
 20
0.363481306
 30
0.0
 11
1.1141182124
 21
0.3220891093
 31
0.0
  0
LINE
  5
133
330
1F
100
AcDbEntity
  8
0
  6
Continuous
 62
     7
100
AcDbLine
 10
1.1141182124
 20
0.3220891093
 30
0.0
 11
1.1402937704
 21
0.3220891093
 31
0.0
  0
SPLINE
  5
134
330
1F
100
AcDbEntity
  8
0
  6
Continuous
 62
     7
100
AcDbSpline
210
0.0
220
0.0
230
1.0
 70
     8
 71
     3
 72
    15
 73
    11
 74
     0
 42
0.00000001
 43
0.00000001
 40
0.0
 40
0.0
 40
0.0
 40
0.0
 40
0.2541663810506706
 40
0.3153671113581187
 40
0.3766718148786209
 40
0.5016413385272451
 40
0.6268579867665399
 40
0.6871979659505298
 40
0.7510711440647642
 40
1.0
 40
1.0
 40
1.0
 40
1.0
 10
0.3869916627726217
 20
1.077021070537278
 30
0.0
 10
0.4280435679298873
 20
1.214458801357941
 30
0.0
 10
0.4494749131691911
 20
1.241543800381844
 30
0.0
 10
0.4840291781075042
 20
1.239823580757533
 30
0.0
 10
0.5517212796986796
 20
1.220032136528386
 30
0.0
 10
0.6188709363186033
 20
1.242044328585913
 30
0.0
 10
0.652906391643019
 20
1.240963285304002
 30
0.0
 10
0.6729029809969788
 20
1.210971764882268
 30
0.0
 10
0.7152396932064187
 20
1.077021070537278
 30
0.0
 10
0.7036547260749582
 20
1.120345845972567
 30
0.0
 10
0.7152396932064187
 20
1.077021070537278
 30
0.0
  0
SPLINE
  5
135
330
1F
100
AcDbEntity
  8
0
  6
Continuous
 62
     7
100
AcDbSpline
210
0.0
220
0.0
230
1.0
 70
     8
 71
     3
 72
    11
 73
     7
 74
     0
 42
0.00000001
 43
0.00000001
 40
0.0
 40
0.0
 40
0.0
 40
0.0
 40
0.2479685214300753
 40
0.4998664578641421
 40
0.7514744859980582
 40
1.0
 40
1.0
 40
1.0
 40
1.0
 10
0.6914819319417158
 20
0.5561061716168187
 30
0.0
 10
0.72065217659539
 20
0.5399527522378799
 30
0.0
 10
0.7299716179966482
 20
0.507387424132269
 30
0.0
 10
0.7205946848957107
 20
0.4748791750057818
 30
0.0
 10
0.6914822528051867
 20
0.4584687240092013
 30
0.0
 10
0.7026312187520112
 20
0.4626406917823029
 30
0.0
 10
0.6914822528051867
 20
0.4584687240092013
 30
0.0
  0
SPLINE
  5
136
330
1F
100
AcDbEntity
  8
0
  6
Continuous
 62
     7
100
AcDbSpline
210
0.0
220
0.0
230
1.0
 70
     8
 71
     3
 72
    11
 73
     7
 74
     0
 42
0.00000001
 43
0.00000001
 40
0.0
 40
0.0
 40
0.0
 40
0.0
 40
0.2494614074351397
 40
0.5012616905575887
 40
0.7501380104355607
 40
1.0
 40
1.0
 40
1.0
 40
1.0
 10
0.696929655675813
 20
0.4322019279062473
 30
0.0
 10
0.7448002460937869
 20
0.4563001312557551
 30
0.0
 10
0.7607953567018171
 20
0.5079778414036216
 30
0.0
 10
0.7448134657990111
 20
0.5590017408391573
 30
0.0
 10
0.6969298357189165
 20
0.5832650232242749
 30
0.0
 10
0.7151719116394405
 20
0.5774251786092552
 30
0.0
 10
0.6969298357189165
 20
0.5832650232242749
 30
0.0
  0
SPLINE
  5
137
330
1F
100
AcDbEntity
  8
0
  6
Continuous
 62
     7
100
AcDbSpline
210
0.0
220
0.0
230
1.0
 70
     8
 71
     3
 72
    17
 73
    13
 74
     0
 42
0.00000001
 43
0.00000001
 40
0.0
 40
0.0
 40
0.0
 40
0.0
 40
0.1862284012187268
 40
0.3731276338773374
 40
0.4802485804887945
 40
0.4861639689065999
 40
0.4929418058942343
 40
0.563862202944152
 40
0.656041278342807
 40
0.7511318272831935
 40
0.8749673759700047
 40
1.0
 40
1.0
 40
1.0
 40
1.0
 10
0.3425970556229118
 20
0.3913242987667461
 30
0.0
 10
0.3793586910686145
 20
0.3743187103395255
 30
0.0
 10
0.3874366624259121
 20
0.3344790927226742
 30
0.0
 10
0.3711942750568676
 20
0.3177754326611171
 30
0.0
 10
0.3708479813841042
 20
0.3165363235887464
 30
0.0
 10
0.371989953855514
 20
0.315604080924342
 30
0.0
 10
0.3851248485556913
 20
0.3075165677376906
 30
0.0
 10
0.3955445274508671
 20
0.2903880681499678
 30
0.0
 10
0.3947137479662647
 20
0.2697226986955991
 30
0.0
 10
0.3788668493634884
 20
0.2479438244635679
 30
0.0
 10
0.3531272798482332
 20
0.2391682258598824
 30
0.0
 10
0.3622814891236147
 20
0.2410464806278774
 30
0.0
 10
0.3531272798482332
 20
0.2391682258598824
 30
0.0
  0
SPLINE
  5
138
330
1F
100
AcDbEntity
  8
0
  6
Continuous
 62
     7
100
AcDbSpline
210
0.0
220
0.0
230
1.0
 70
     8
 71
     3
 72
    13
 73
     9
 74
     0
 42
0.00000001
 43
0.00000001
 40
0.0
 40
0.0
 40
0.0
 40
0.0
 40
0.133743418164962
 40
0.2516792480084896
 40
0.5058677937311654
 40
0.6280584119731704
 40
0.7506690624845139
 40
1.0
 40
1.0
 40
1.0
 40
1.0
 10
0.345342330575928
 20
0.2674033734096097
 30
0.0
 10
0.3535312364696577
 20
0.2672776506973534
 30
0.0
 10
0.3595931568463134
 20
0.2712030430822442
 30
0.0
 10
0.3657590886513512
 20
0.285495115369897
 30
0.0
 10
0.3647812241524666
 20
0.2929133697576614
 30
0.0
 10
0.3599552465114648
 20
0.2986650850711228
 30
0.0
 10
0.3453424005833378
 20
0.3030894626738483
 30
0.0
 10
0.3505671580841394
 20
0.3023595205891891
 30
0.0
 10
0.3453424005833379
 20
0.3030894626738483
 30
0.0
  0
SPLINE
  5
139
330
1F
100
AcDbEntity
  8
0
  6
Continuous
 62
     7
100
AcDbSpline
210
0.0
220
0.0
230
1.0
 70
     8
 71
     3
 72
    11
 73
     7
 74
     0
 42
0.00000001
 43
0.00000001
 40
0.0
 40
0.0
 40
0.0
 40
0.0
 40
0.2474206197799202
 40
0.50333152988805
 40
0.7503984505056824
 40
1.0
 40
1.0
 40
1.0
 40
1.0
 10
0.345342330575928
 20
0.3321089198777347
 30
0.0
 10
0.355039153050655
 20
0.3372405822933397
 30
0.0
 10
0.3584512162938922
 20
0.3480628924487619
 30
0.0
 10
0.3552450538594801
 20
0.3585385292649593
 30
0.0
 10
0.3453424005833379
 20
0.3634813060440984
 30
0.0
 10
0.3491245019993053
 20
0.3623076262304628
 30
0.0
 10
0.3453424005833379
 20
0.3634813060440984
 30
0.0
  0
SPLINE
  5
13A
330
1F
100
AcDbEntity
  8
0
  6
Continuous
 62
     7
100
AcDbSpline
210
0.0
220
0.0
230
1.0
 70
    11
 71
     3
 72
    15
 73
    11
 74
     0
 42
0.00000001
 43
0.00000001
 40
0.0
 40
0.0
 40
0.0
 40
0.0
 40
0.123079857469253
 40
0.2496330655431397
 40
0.374273923629485
 40
0.500923314874895
 40
0.6234645726716271
 40
0.7492225456031317
 40
0.8756685417053418
 40
0.9999999999999999
 40
0.9999999999999999
 40
0.9999999999999999
 40
0.9999999999999999
 10
0.4956616074081481
 20
0.3634813060440983
 30
0.0
 10
0.5270225605352991
 20
0.3477818919410622
 30
0.0
 10
0.5361330294181326
 20
0.3128909081970618
 30
0.0
 10
0.5260573850325218
 20
0.2788341982037979
 30
0.0
 10
0.4922504319924893
 20
0.2662068982918224
 30
0.0
 10
0.4611390907279547
 20
0.282060104422969
 30
0.0
 10
0.450645871063629
 20
0.3163235310313139
 30
0.0
 10
0.4628008828705512
 20
0.3502415900145319
 30
0.0
 10
0.495661702746636
 20
0.3634813060440983
 30
0.0
 10
0.4832617591756024
 20
0.3607625843123584
 30
0.0
 10
0.4956617027466361
 20
0.3634813060440984
 30
0.0
  0
SPLINE
  5
13B
330
1F
100
AcDbEntity
  8
0
  6
Continuous
 62
     7
100
AcDbSpline
210
0.0
220
0.0
230
1.0
 70
    11
 71
     3
 72
    15
 73
    11
 74
     0
 42
0.00000001
 43
0.00000001
 40
0.0
 40
0.0
 40
0.0
 40
0.0
 40
0.124262717680212
 40
0.2495684499865144
 40
0.3750232694828668
 40
0.5014780288854865
 40
0.6262793442611236
 40
0.7517249179156641
 40
0.8755827134439507
 40
1.0
 40
1.0
 40
1.0
 40
1.0
 10
0.4981015258886683
 20
0.235376473498817
 30
0.0
 10
0.5518862547923011
 20
0.2619448483792916
 30
0.0
 10
0.5689506777728837
 20
0.3199805828720811
 30
0.0
 10
0.5448103349094704
 20
0.3755260391444948
 30
0.0
 10
0.4871339019375182
 20
0.3955307524229355
 30
0.0
 10
0.433974751957394
 20
0.3671750862809364
 30
0.0
 10
0.41761837289946
 20
0.3088657209148022
 30
0.0
 10
0.4409354134191892
 20
0.2538059699906603
 30
0.0
 10
0.4981017280753871
 20
0.235376473498817
 30
0.0
 10
0.4767544929021927
 20
0.2384027478555554
 30
0.0
 10
0.4981017280753871
 20
0.235376473498817
 30
0.0
  0
SPLINE
  5
13C
330
1F
100
AcDbEntity
  8
0
  6
Continuous
 62
     7
100
AcDbSpline
210
0.0
220
0.0
230
1.0
 70
     8
 71
     3
 72
    11
 73
     7
 74
     0
 42
0.00000001
 43
0.00000001
 40
0.0
 40
0.0
 40
0.0
 40
0.0
 40
0.3654343256301524
 40
0.5560030614367709
 40
0.7454398274187778
 40
1.0
 40
1.0
 40
1.0
 40
1.0
 10
1.140293760562506
 20
0.3900123177195792
 30
0.0
 10
1.185648260569842
 20
0.3681904549393331
 30
0.0
 10
1.194441053781635
 20
0.3434601067917648
 30
0.0
 10
1.189848812777305
 20
0.3177763599705699
 30
0.0
 10
1.160940126665427
 20
0.2979388795844681
 30
0.0
 10
1.172494427104855
 20
0.3031080939530013
 30
0.0
 10
1.160940126665427
 20
0.2979388795844681
 30
0.0
  0
SPLINE
  5
13D
330
1F
100
AcDbEntity
  8
0
  6
Continuous
 62
     7
100
AcDbSpline
210
0.0
220
0.0
230
1.0
 70
     8
 71
     3
 72
    11
 73
     7
 74
     0
 42
0.00000001
 43
0.00000001
 40
0.0
 40
0.0
 40
0.0
 40
0.0
 40
0.3586769010280364
 40
0.5373134691771515
 40
0.7030760052617944
 40
0.9999999999999999
 40
0.9999999999999999
 40
0.9999999999999999
 40
0.9999999999999999
 10
1.140293760562506
 20
0.3634813060440983
 30
0.0
 10
1.158036733366948
 20
0.3496608283561454
 30
0.0
 10
1.160950428772179
 20
0.3388452299501656
 30
0.0
 10
1.157576212785778
 20
0.3290142200105118
 30
0.0
 10
1.140293770406265
 20
0.3220891092892634
 30
0.0
 10
1.147052731666629
 20
0.3232417138575868
 30
0.0
 10
1.140293770406265
 20
0.3220891092892634
 30
0.0
  0
MTEXT
  5
13F
330
1F
100
AcDbEntity
  8
0
  6
Continuous
 62
     7
100
AcDbMText
 10
0.0
 20
-0.0401404091
 30
0.0
 40
0.1903
 41
0.0
 71
     1
 72
     1
  1
SOLIDWORKS Educational Product.
  7
SLDTEXTSTYLE0
 73
     1
 44
1.0
  0
MTEXT
  5
140
330
1F
100
AcDbEntity
  8
0
  6
Continuous
 62
     7
100
AcDbMText
 10
0.0
 20
-0.3255904091
 30
0.0
 40
0.1903
 41
0.0
 71
     1
 72
     1
  1
For Instructional Use Only.
  7
SLDTEXTSTYLE0
 73
     1
 44
1.0
  0
ENDSEC
  0
SECTION
  2
OBJECTS
  0
DICTIONARY
  5
C
330
0
100
AcDbDictionary
281
     1
  3
ACAD_GROUP
350
D
  3
ACAD_LAYOUT
350
1A
  3
ACAD_MLINESTYLE
350
17
  3
ACAD_PLOTSETTINGS
350
19
  3
ACAD_PLOTSTYLENAME
350
E
  3
ACAD_SCALELIST
350
47
  3
DWGPROPS
350
141
  0
DICTIONARY
  5
D
102
{ACAD_REACTORS
330
C
102
}
330
C
100
AcDbDictionary
281
     1
  0
DICTIONARY
  5
1A
102
{ACAD_REACTORS
330
C
102
}
330
C
100
AcDbDictionary
281
     1
  3
Layout1
350
1E
  3
Layout2
350
26
  3
Model
350
22
  0
DICTIONARY
  5
17
102
{ACAD_REACTORS
330
C
102
}
330
C
100
AcDbDictionary
281
     1
  3
Standard
350
18
  0
DICTIONARY
  5
19
102
{ACAD_REACTORS
330
C
102
}
330
C
100
AcDbDictionary
281
     1
  0
ACDBDICTIONARYWDFLT
  5
E
102
{ACAD_REACTORS
330
C
102
}
330
C
100
AcDbDictionary
281
     1
  3
Normal
350
F
100
AcDbDictionaryWithDefault
340
F
  0
DICTIONARY
  5
47
102
{ACAD_REACTORS
330
C
102
}
330
C
100
AcDbDictionary
281
     1
  3
A0
350
48
  3
A1
350
49
  3
A2
350
4A
  3
A3
350
4B
  3
A4
350
4C
  3
A5
350
4D
  3
A6
350
4E
  3
A7
350
4F
  3
A8
350
50
  3
A9
350
51
  3
B1
350
52
  3
B2
350
53
  3
B3
350
54
  3
B4
350
55
  3
B5
350
56
  3
B6
350
57
  3
B7
350
58
  0
XRECORD
  5
141
102
{ACAD_REACTORS
330
C
102
}
330
C
100
AcDbXrecord
280
     1
  1
DWGPROPS COOKIE
  2

  3

  4

  6

  7

  8
wotbl
  9

300
=
301
=
302
=
303
=
304
=
305
=
306
=
307
=
308
=
309
=
 40
0.0
 41
2460884.722185498
 42
2460884.722414526
  1

 90
        0
  0
LAYOUT
  5
1E
102
{ACAD_REACTORS
330
1A
102
}
330
1A
100
AcDbPlotSettings
  1

  2
none_device
  4

  6

 40
0.0
 41
0.0
 42
0.0
 43
0.0
 44
0.0
 45
0.0
 46
0.0
 47
0.0
 48
0.0
 49
0.0
140
0.0
141
0.0
142
1.0
143
1.0
 70
   688
 72
     0
 73
     0
 74
     5
  7

 75
    16
147
1.0
148
0.0
149
0.0
100
AcDbLayout
  1
Layout1
 70
     1
 71
     1
 10
0.0
 20
0.0
 11
12.0
 21
9.0
 12
0.0
 22
0.0
 32
0.0
 14
1.0000000000E+20
 24
1.0000000000E+20
 34
1.0000000000E+20
 15
-1.0000000000E+20
 25
-1.0000000000E+20
 35
-1.0000000000E+20
146
0.0
 13
0.0
 23
0.0
 33
0.0
 16
1.0
 26
0.0
 36
0.0
 17
0.0
 27
1.0
 37
0.0
 76
     0
330
1B
  0
LAYOUT
  5
26
102
{ACAD_REACTORS
330
1A
102
}
330
1A
100
AcDbPlotSettings
  1

  2
none_device
  4

  6

 40
0.0
 41
0.0
 42
0.0
 43
0.0
 44
0.0
 45
0.0
 46
0.0
 47
0.0
 48
0.0
 49
0.0
140
0.0
141
0.0
142
1.0
143
1.0
 70
   688
 72
     0
 73
     0
 74
     5
  7

 75
    16
147
1.0
148
0.0
149
0.0
100
AcDbLayout
  1
Layout2
 70
     1
 71
     2
 10
0.0
 20
0.0
 11
0.0
 21
0.0
 12
0.0
 22
0.0
 32
0.0
 14
0.0
 24
0.0
 34
0.0
 15
0.0
 25
0.0
 35
0.0
146
0.0
 13
0.0
 23
0.0
 33
0.0
 16
1.0
 26
0.0
 36
0.0
 17
0.0
 27
1.0
 37
0.0
 76
     0
330
23
  0
LAYOUT
  5
22
102
{ACAD_REACTORS
330
1A
102
}
330
1A
100
AcDbPlotSettings
  1

  2
none_device
  4
ANSI_A_(11.00_x_8.50_Inches)
  6

 40
6.35
 41
19.05
 42
6.35000508
 43
19.05000254
 44
279.4
 45
215.9
 46
26.47949746
 47
-17.97050127
 48
0.0
 49
0.0
140
0.0
141
0.0
142
5.61
143
1.0
 70
  1696
 72
     0
 73
     0
 74
     0
  7

 75
     0
147
0.5913241897
148
-39.4088153714
149
0.0
100
AcDbLayout
  1
Model
 70
     1
 71
     0
 10
0.0
 20
0.0
 11
12.0
 21
9.0
 12
0.0
 22
0.0
 32
0.0
 14
0.0
 24
0.0
 34
0.0
 15
1.5
 25
1.5
 35
0.0
146
0.0
 13
0.0
 23
0.0
 33
0.0
 16
1.0
 26
0.0
 36
0.0
 17
0.0
 27
1.0
 37
0.0
 76
     0
330
1F
331
29
  0
MLINESTYLE
  5
18
102
{ACAD_REACTORS
330
17
102
}
330
17
100
AcDbMlineStyle
  2
Standard
 70
     0
  3

 62
   256
 51
90.0
 52
90.0
 71
     2
 49
0.5
 62
   256
  6
BYLAYER
 49
-0.5
 62
   256
  6
BYLAYER
  0
ACDBPLACEHOLDER
  5
F
102
{ACAD_REACTORS
330
E
102
}
330
E
  0
SCALE
  5
48
102
{ACAD_REACTORS
330
47
102
}
330
47
100
AcDbScale
 70
     0
300
1:1
140
1.0
141
1.0
290
     1
  0
SCALE
  5
49
102
{ACAD_REACTORS
330
47
102
}
330
47
100
AcDbScale
 70
     0
300
1/128" = 1'-0"
140
0.0078125
141
12.0
290
     0
  0
SCALE
  5
4A
102
{ACAD_REACTORS
330
47
102
}
330
47
100
AcDbScale
 70
     0
300
1/64" = 1'-0"
140
0.015625
141
12.0
290
     0
  0
SCALE
  5
4B
102
{ACAD_REACTORS
330
47
102
}
330
47
100
AcDbScale
 70
     0
300
1/32" = 1'-0"
140
0.03125
141
12.0
290
     0
  0
SCALE
  5
4C
102
{ACAD_REACTORS
330
47
102
}
330
47
100
AcDbScale
 70
     0
300
1/16" = 1'-0"
140
0.0625
141
12.0
290
     0
  0
SCALE
  5
4D
102
{ACAD_REACTORS
330
47
102
}
330
47
100
AcDbScale
 70
     0
300
3/32" = 1'-0"
140
0.09375
141
12.0
290
     0
  0
SCALE
  5
4E
102
{ACAD_REACTORS
330
47
102
}
330
47
100
AcDbScale
 70
     0
300
1/8" = 1'-0"
140
0.125
141
12.0
290
     0
  0
SCALE
  5
4F
102
{ACAD_REACTORS
330
47
102
}
330
47
100
AcDbScale
 70
     0
300
3/16" = 1'-0"
140
0.1875
141
12.0
290
     0
  0
SCALE
  5
50
102
{ACAD_REACTORS
330
47
102
}
330
47
100
AcDbScale
 70
     0
300
1/4" = 1'-0"
140
0.25
141
12.0
290
     0
  0
SCALE
  5
51
102
{ACAD_REACTORS
330
47
102
}
330
47
100
AcDbScale
 70
     0
300
3/8" = 1'-0"
140
0.375
141
12.0
290
     0
  0
SCALE
  5
52
102
{ACAD_REACTORS
330
47
102
}
330
47
100
AcDbScale
 70
     0
300
1/2" = 1'-0"
140
0.5
141
12.0
290
     0
  0
SCALE
  5
53
102
{ACAD_REACTORS
330
47
102
}
330
47
100
AcDbScale
 70
     0
300
3/4" = 1'-0"
140
0.75
141
12.0
290
     0
  0
SCALE
  5
54
102
{ACAD_REACTORS
330
47
102
}
330
47
100
AcDbScale
 70
     0
300
1" = 1'-0"
140
1.0
141
12.0
290
     0
  0
SCALE
  5
55
102
{ACAD_REACTORS
330
47
102
}
330
47
100
AcDbScale
 70
     0
300
1-1/2" = 1'-0"
140
1.5
141
12.0
290
     0
  0
SCALE
  5
56
102
{ACAD_REACTORS
330
47
102
}
330
47
100
AcDbScale
 70
     0
300
3" = 1'-0"
140
3.0
141
12.0
290
     0
  0
SCALE
  5
57
102
{ACAD_REACTORS
330
47
102
}
330
47
100
AcDbScale
 70
     0
300
6" = 1'-0"
140
6.0
141
12.0
290
     0
  0
SCALE
  5
58
102
{ACAD_REACTORS
330
47
102
}
330
47
100
AcDbScale
 70
     0
300
1'-0" = 1'-0"
140
12.0
141
12.0
290
     0
  0
ENDSEC
  0
EOF
